<svg viewBox="0 0 900 560" xmlns="http://www.w3.org/2000/svg" font-family="Helvetica, Arial, sans-serif">
  <rect width="900" height="560" fill="#0f172a"/>

  <text x="450" y="35" text-anchor="middle" fill="#f8fafc" font-size="20" font-weight="bold">notes-service: VPS Deployment Architecture</text>

  <!-- Internet -->
  <text x="450" y="65" text-anchor="middle" fill="#94a3b8" font-size="13">Internet</text>
  <line x1="450" y1="72" x2="450" y2="100" stroke="#64748b" stroke-width="2" marker-end="url(#arrow)"/>
  <text x="465" y="90" fill="#64748b" font-size="11">:80 / :443</text>

  <!-- VPS box -->
  <rect x="60" y="100" width="780" height="420" rx="10" fill="none" stroke="#475569" stroke-width="1.5" stroke-dasharray="6,4"/>
  <text x="80" y="125" fill="#64748b" font-size="13">VPS (Ubuntu, UFW + fail2ban)</text>

  <!-- UFW firewall note -->
  <rect x="80" y="140" width="740" height="30" rx="4" fill="#1e293b" stroke="#334155"/>
  <text x="450" y="160" text-anchor="middle" fill="#cbd5e1" font-size="12">UFW firewall: only 22, 80, 443 reachable from outside</text>

  <!-- Nginx -->
  <rect x="340" y="190" width="220" height="60" rx="6" fill="#1e3a5f" stroke="#3b82f6" stroke-width="1.5"/>
  <text x="450" y="215" text-anchor="middle" fill="#dbeafe" font-size="14" font-weight="bold">Nginx</text>
  <text x="450" y="233" text-anchor="middle" fill="#93c5fd" font-size="11">reverse proxy, TLS, rate limit</text>
  <line x1="450" y1="170" x2="450" y2="190" stroke="#64748b" stroke-width="2" marker-end="url(#arrow)"/>

  <!-- App -->
  <rect x="340" y="280" width="220" height="60" rx="6" fill="#1e3a2f" stroke="#22c55e" stroke-width="1.5"/>
  <text x="450" y="305" text-anchor="middle" fill="#dcfce7" font-size="14" font-weight="bold">FastAPI app</text>
  <text x="450" y="323" text-anchor="middle" fill="#86efac" font-size="11">uvicorn, non-root, /health</text>
  <line x1="450" y1="250" x2="450" y2="280" stroke="#64748b" stroke-width="2" marker-end="url(#arrow)"/>

  <!-- Postgres -->
  <rect x="150" y="390" width="200" height="60" rx="6" fill="#3b2a1e" stroke="#f59e0b" stroke-width="1.5"/>
  <text x="250" y="415" text-anchor="middle" fill="#fef3c7" font-size="14" font-weight="bold">PostgreSQL 16</text>
  <text x="250" y="433" text-anchor="middle" fill="#fcd34d" font-size="11">internal network only</text>
  <line x1="400" y1="340" x2="280" y2="390" stroke="#64748b" stroke-width="2" marker-end="url(#arrow)"/>

  <!-- Redis -->
  <rect x="550" y="390" width="200" height="60" rx="6" fill="#3b1e2e" stroke="#ec4899" stroke-width="1.5"/>
  <text x="650" y="415" text-anchor="middle" fill="#fce7f3" font-size="14" font-weight="bold">Redis 7</text>
  <text x="650" y="433" text-anchor="middle" fill="#f9a8d4" font-size="11">read-through cache</text>
  <line x1="500" y1="340" x2="620" y2="390" stroke="#64748b" stroke-width="2" marker-end="url(#arrow)"/>

  <!-- Volumes note -->
  <rect x="150" y="470" width="600" height="32" rx="4" fill="#1e293b" stroke="#334155"/>
  <text x="450" y="491" text-anchor="middle" fill="#94a3b8" font-size="11">Named Docker volumes: pgdata, redisdata, certbot-conf, certbot-www — survive container recreation</text>

  <!-- CI/CD -->
  <rect x="60" y="0" width="0" height="0"/>
  <g>
    <rect x="650" y="105" width="170" height="50" rx="6" fill="#2d1e3b" stroke="#a855f7" stroke-width="1.5" opacity="0.95"/>
    <text x="735" y="125" text-anchor="middle" fill="#e9d5ff" font-size="11" font-weight="bold">GitHub Actions</text>
    <text x="735" y="140" text-anchor="middle" fill="#d8b4fe" font-size="10">build → SSH deploy</text>
  </g>
  <line x1="650" y1="130" x2="565" y2="200" stroke="#a855f7" stroke-width="1.5" stroke-dasharray="4,3" marker-end="url(#arrowp)"/>

  <defs>
    <marker id="arrow" markerWidth="8" markerHeight="8" refX="4" refY="4" orient="auto">
      <path d="M0,0 L8,4 L0,8 Z" fill="#64748b"/>
    </marker>
    <marker id="arrowp" markerWidth="8" markerHeight="8" refX="4" refY="4" orient="auto">
      <path d="M0,0 L8,4 L0,8 Z" fill="#a855f7"/>
    </marker>
  </defs>
</svg>
